/* XPM */
static char * ggzlogo_xpm[] = {
"32 32 299 2",
"  	c None",
". 	c #C0C0C0",
"+ 	c #C6C6C6",
"@ 	c #B9B9B9",
"# 	c #C4C4C4",
"$ 	c #C7C7C7",
"% 	c #B1B1B1",
"& 	c #C5C5C5",
"* 	c #CFC2C2",
"= 	c #D25858",
"- 	c #D24444",
"; 	c #D1A3A3",
"> 	c #BDBDBD",
", 	c #C9C9C9",
"' 	c #CFCFCF",
") 	c #D1D1D1",
"! 	c #D0D0D0",
"~ 	c #C2C2C2",
"{ 	c #CACACA",
"] 	c #D3D3D3",
"^ 	c #D3BBBB",
"/ 	c #D43434",
"( 	c #D42C2C",
"_ 	c #D49E9E",
": 	c #D4D4D4",
"< 	c #CCCCCC",
"[ 	c #A7A7A7",
"} 	c #6D6D6D",
"| 	c #8A8A8A",
"1 	c #D2D2D2",
"2 	c #C1C1C1",
"3 	c #D0D0D1",
"4 	c #605FD4",
"5 	c #2D2AD4",
"6 	c #6E6DD5",
"7 	c #D5D5D5",
"8 	c #D6D6D6",
"9 	c #9E9E9E",
"0 	c #181818",
"a 	c #939393",
"b 	c #525252",
"c 	c #8D8D8D",
"d 	c #E8E8E8",
"e 	c #D7D7D9",
"f 	c #4B49D6",
"g 	c #2624D6",
"h 	c #7574D6",
"i 	c #D7D7D7",
"j 	c #D0D5D1",
"k 	c #3EBC64",
"l 	c #17B546",
"m 	c #70C58A",
"n 	c #FDFDFD",
"o 	c #E4E4E4",
"p 	c #434343",
"q 	c #727272",
"r 	c #818181",
"s 	c #4B4B4B",
"t 	c #565656",
"u 	c #848484",
"v 	c #EAEAEA",
"w 	c #DCDCDC",
"x 	c #D8D8D8",
"y 	c #D8D8D4",
"z 	c #D4D7D5",
"A 	c #64C381",
"B 	c #49BF6C",
"C 	c #9ECFAD",
"D 	c #E6E6E6",
"E 	c #F1F1F1",
"F 	c #EDEDED",
"G 	c #FEFEFE",
"H 	c #EBEBEB",
"I 	c #626262",
"J 	c #5F5F5F",
"K 	c #2A2A2A",
"L 	c #2E2E2E",
"M 	c #BEBEBE",
"N 	c #DADADA",
"O 	c #E5E5E5",
"P 	c #AAAAAA",
"Q 	c #AFAFAF",
"R 	c #CECECE",
"S 	c #E0E0E0",
"T 	c #D9D9D9",
"U 	c #D9D765",
"V 	c #D9D627",
"W 	c #D9D64A",
"X 	c #DFDFDF",
"Y 	c #FBFBFB",
"Z 	c #C5A4A3",
"` 	c #D8C2C2",
" .	c #A5A5A5",
"..	c #999999",
"+.	c #9F9F9F",
"@.	c #F3F3F3",
"#.	c #A9A9A9",
"$.	c #ABABAB",
"%.	c #ABAAAC",
"&.	c #C5C4C6",
"*.	c #E9E9E9",
"=.	c #E3E3E3",
"-.	c #DAD99B",
";.	c #DAD86A",
">.	c #DBDA9C",
",.	c #F4F4F4",
"'.	c #FAFAFA",
").	c #E7E7E7",
"!.	c #CFCFCE",
"~.	c #C2C2C1",
"{.	c #B67C7C",
"].	c #B02323",
"^.	c #CECDCD",
"/.	c #F7F7F7",
"(.	c #DDDDDD",
"_.	c #DBDBDB",
":.	c #F2F2F2",
"<.	c #DEDEDE",
"[.	c #ADADAD",
"}.	c #A6A6A7",
"|.	c #6860A0",
"1.	c #8984A9",
"2.	c #ECECEC",
"3.	c #BFBFBE",
"4.	c #C0C0BE",
"5.	c #C1C1BF",
"6.	c #C0C0BF",
"7.	c #B57B7B",
"8.	c #B30000",
"9.	c #A94C4C",
"0.	c #C08C8C",
"a.	c #F6F6F6",
"b.	c #EFEFEF",
"c.	c #84868B",
"d.	c #6E7076",
"e.	c #70699E",
"f.	c #1D0AA2",
"g.	c #1500A9",
"h.	c #564AA6",
"i.	c #BABABA",
"j.	c #ADADAC",
"k.	c #343435",
"l.	c #151516",
"m.	c #373738",
"n.	c #B47B7A",
"o.	c #B20000",
"p.	c #B10101",
"q.	c #B78282",
"r.	c #F0F0F0",
"s.	c #CBCBCB",
"t.	c #B4B4B4",
"u.	c #AEAEAE",
"v.	c #646992",
"w.	c #797E9A",
"x.	c #7E8291",
"y.	c #787A88",
"z.	c #5C539D",
"A.	c #1500A5",
"B.	c #1500A7",
"C.	c #1E0BA7",
"D.	c #A1A0A6",
"E.	c #A8A8A8",
"F.	c #2C2C2D",
"G.	c #010103",
"H.	c #030305",
"I.	c #B6B6B4",
"J.	c #BFBFBD",
"K.	c #B37A79",
"L.	c #B10000",
"M.	c #B00000",
"N.	c #AD1818",
"O.	c #BEBDBD",
"P.	c #9E9EA0",
"Q.	c #1E298E",
"R.	c #666E9B",
"S.	c #464F85",
"T.	c #87888D",
"U.	c #8F8D9F",
"V.	c #1A06A1",
"W.	c #1500A6",
"X.	c #6056A4",
"Y.	c #B6B6B6",
"Z.	c #B7B7B7",
"`.	c #AAAAA9",
" +	c #232324",
".+	c #252526",
"++	c #636363",
"@+	c #040406",
"#+	c #A9A9A8",
"$+	c #BEBEBC",
"%+	c #B27979",
"&+	c #AF0000",
"*+	c #B79798",
"=+	c #9A9B9C",
"-+	c #797C7E",
";+	c #8E908F",
">+	c #969697",
",+	c #191E53",
"'+	c #1E256F",
")+	c #6D6F91",
"!+	c #9C9C9C",
"~+	c #6C659D",
"{+	c #1C099E",
"]+	c #1905A1",
"^+	c #1D0AA3",
"/+	c #9B99A4",
"(+	c #BEBEBD",
"_+	c #A7A7A6",
":+	c #4E493C",
"<+	c #927B1A",
"[+	c #987C15",
"}+	c #161513",
"|+	c #595959",
"1+	c #BDBDBB",
"2+	c #B07A79",
"3+	c #AE0000",
"4+	c #B68181",
"5+	c #AAABAB",
"6+	c #394049",
"7+	c #363D44",
"8+	c #5D6267",
"9+	c #9B9CA0",
"0+	c #8B8B8A",
"a+	c #969796",
"b+	c #9A9A9A",
"c+	c #91909A",
"d+	c #9A9A9C",
"e+	c #3B2D96",
"f+	c #1500A3",
"g+	c #6057A0",
"h+	c #B2B2B2",
"i+	c #B6B6B5",
"j+	c #BDBDBC",
"k+	c #B2B2B0",
"l+	c #6C520C",
"m+	c #9D7D11",
"n+	c #A29780",
"o+	c #454545",
"p+	c #020203",
"q+	c #ADA3A3",
"r+	c #AB0808",
"s+	c #AD0000",
"t+	c #B68B8B",
"u+	c #383E48",
"v+	c #202930",
"w+	c #5A5E62",
"x+	c #A6A6A6",
"y+	c #3E3194",
"z+	c #51479A",
"A+	c #22109E",
"B+	c #392B9C",
"C+	c #B0B0B0",
"D+	c #BCBCBB",
"E+	c #A8A8A7",
"F+	c #6F6D68",
"G+	c #9D9A92",
"H+	c #B7B7B6",
"I+	c #8C8C8B",
"J+	c #141414",
"K+	c #080809",
"L+	c #989898",
"M+	c #A64D4D",
"N+	c #AC0000",
"O+	c #A90B0B",
"P+	c #B7B1B1",
"Q+	c #A4A5A5",
"R+	c #333B44",
"S+	c #1F272F",
"T+	c #5D6164",
"U+	c #392B9A",
"V+	c #83809B",
"W+	c #6A6399",
"X+	c #B3B3B3",
"Y+	c #BBBBBA",
"Z+	c #616060",
"`+	c #B8B8B7",
" @	c #7A7A7A",
".@	c #7F7F7F",
"+@	c #A62121",
"@@	c #A50C0C",
"#@	c #A47474",
"$@	c #B8B8B8",
"%@	c #B5B5B5",
"&@	c #9B9C9D",
"*@	c #454C51",
"=@	c #4D5358",
"-@	c #989999",
";@	c #6D6795",
">@	c #9D9D9D",
",@	c #ACACAC",
"'@	c #959594",
")@	c #444445",
"!@	c #B5B5B4",
"~@	c #A2A0A0",
"{@	c #A5A6A6",
"]@	c #8F8E97",
"^@	c #5D5D5D",
"/@	c #A2A2A2",
"(@	c #959595",
"                                                                ",
"                                                                ",
"                                                                ",
"                                                                ",
"                                                                ",
"                                                                ",
"                . + @                         # $ %             ",
"            & * = - ; >                   , ' ) ) ! @           ",
"      ~ { ] ] ^ / ( _ : #           $ < [ } | . 1 1 1 2         ",
"  { 3 4 5 6 7 7 7 7 7 8 8 ,     8 1 7 : 9 0 a b c ) ] ] ,       ",
") d e f g h 8 i i i j k l m ' 8 n o i 8 7 p q r s t u : : ' %   ",
"% ] v w x x x y x x z A B C D E F G H x i # | I J K L M 7 N O { ",
"P Q R v S T U V W T T X F Y G E Z ` n E N x x  ...+.> S F @.O @ ",
"#.$.%.&.*.=.-.;.>.O ,.G '.).!.~.{.].^.Y /.(.T x _.D @.:.<.. [.+.",
"[ }.|.1.2 D d 2.'.G ,.w 3.4.5.6.7.8.9.0.a.Y D 2.a.b.7 @ [.c.d...",
"e.f.g.h.$.i.:.Y v ) j.k.l.m.4.4.n.o.o.p.q.r.Y d s.t.u.[.v.w.x.y.",
"z.A.B.C.D.E.> 6.4.4.F.G.l.H.I.J.K.L.L.M.N.O.& % Q u.P P.Q.R.S.T.",
"U.V.A.W.X.[ Y.Z.3.`. +.+++@+#+$+%+M.M.&+&+*+i.Q =+-+;+>+,+'+)+!+",
"9 ~+{+]+^+/+t.Y.(+_+:+<+[+}+|+1+2+3+3+3+3+4+@ 5+6+7+8+9+0+a+[ b+",
"  c+d+e+f+g+h+i+j+k+l+m+n+o+p+|+q+r+s+s+s+t+Z.[ u+v+w+P E.[ x+..",
"    y+z+A+B+C+t.D+E+F+G+H+I+J+K+L+M+N+N+O+P+Y.Q+R+S+T+#.[ x+ .b+",
"      U+V+W+u.X+Y+Z+i+H+`+i+ @.@    +@@@#@$@%@&@*@=@-@[ x++.L+  ",
"        ;@>@,@h+'@)@H+!@#.            ~@#.$@X+P {@E.x++.        ",
"          ]@#.% ^@0+ .                  /@Y.h+#. .9             ",
"            ..+.(@                        P /@!+                ",
"                                                                ",
"                                                                ",
"                                                                ",
"                                                                ",
"                                                                ",
"                                                                ",
"                                                                "};
